<svg width="22.000000" height="21.000000" viewBox="0 0 22 21" fill="none" xmlns="http://www.w3.org/2000/svg" xmlns:xlink="http://www.w3.org/1999/xlink">
	<desc>
			Created with Pixso.
	</desc>
	<defs/>
	<path id="Vector" d="M10.5996 20.8956L10.5916 20.8921L10.5667 20.8781C10.4216 20.7955 10.2776 20.7107 10.1348 20.6238C8.41724 19.5685 6.8125 18.3288 5.34668 16.9254C2.75049 14.4205 0 10.7034 0 6.12524C0 2.70917 2.77979 9.15527e-05 6.13525 9.15527e-05C7.06787 -0.00463867 7.98975 0.20816 8.83203 0.62265C9.67432 1.03714 10.4153 1.64264 11 2.39413C11.585 1.64249 12.3262 1.03687 13.1685 0.622375C14.011 0.207886 14.9331 -0.00482178 15.866 9.15527e-05C19.2202 9.15527e-05 22 2.70917 22 6.12524C22 10.7045 19.2495 14.4216 16.6533 16.9242C15.1875 18.3277 13.5828 19.5674 11.8652 20.6226C11.7224 20.7099 11.5784 20.7951 11.4333 20.8781L11.4084 20.8921L11.4004 20.8968L11.3972 20.8979C11.2749 20.965 11.1384 21 11 21C10.8616 21 10.7251 20.965 10.6028 20.8979L10.5996 20.8956Z" fill="#FFFFFF" fill-opacity="1.000000" fill-rule="nonzero"/>
</svg>
